<svg width="178" height="174" viewBox="0 0 178 174" fill="none" xmlns="http://www.w3.org/2000/svg">
<path fill-rule="evenodd" clip-rule="evenodd" d="M0 72C0 111.765 32.2355 144 72 144C87.6742 144 102.179 138.991 114 130.487C121.521 125.077 127.956 118.252 132.915 110.402C134.614 107.713 136.14 104.903 137.477 101.989C141.665 92.8592 144 82.7023 144 72C144 32.2355 111.765 0 72 0C32.2355 0 0 32.2355 0 72Z" fill="#868686"/>
<path d="M114 130.487L157.513 174L177.013 154.5L132.915 110.402C127.956 118.252 121.521 125.077 114 130.487Z" fill="#770000"/>
<circle cx="71.5" cy="72.5" r="60.5" fill="#A9BAE8"/>
<path d="M38 64.5H105.5H119.5L97.5 50.0556L89 44.4747L70 32L24 64.5H38Z" fill="#770000"/>
<path d="M89 34.5V44.4747L97.5 50.0556V34.5H89Z" fill="#C82D2D"/>
<path fill-rule="evenodd" clip-rule="evenodd" d="M38 108.5V64.5H105.5V108.5H38ZM85.5 76H58V94H85.5V76Z" fill="#C82D2D"/>
<path d="M58 76H85.5V94H58V76Z" fill="#A5B0D1"/>
</svg>
